<?xml version="1.0" standalone="no"?>
<!DOCTYPE svg PUBLIC "-//W3C//DTD SVG 20010904//EN"
 "http://www.w3.org/TR/2001/REC-SVG-20010904/DTD/svg10.dtd">
<svg version="1.0" xmlns="http://www.w3.org/2000/svg"
 width="520.000000pt" height="520.000000pt" viewBox="0 0 520.000000 520.000000"
 preserveAspectRatio="xMidYMid meet">
<metadata>
Created by potrace 1.11, written by Peter Selinger 2001-2013
</metadata>
<g transform="translate(0.000000,520.000000) scale(0.100000,-0.100000)"
fill="#000000" stroke="none">
<path d="M2888 4695 c-2 -1 -48 -5 -103 -9 -55 -3 -122 -9 -150 -12 -70 -7
-261 -51 -282 -64 -16 -10 -16 -11 2 -6 31 8 106 24 145 31 108 20 415 26 535
11 28 -3 73 -8 100 -11 42 -4 129 -19 220 -39 143 -30 298 -86 425 -153 58
-30 107 -58 110 -62 3 -4 28 -23 56 -44 172 -124 338 -396 378 -617 13 -70 18
-236 8 -279 -12 -52 -2 -86 28 -96 62 -20 141 155 134 296 -4 105 -45 253
-100 361 -79 158 -225 330 -351 416 -154 104 -413 206 -603 236 -19 3 -48 8
-65 11 -110 19 -197 26 -357 29 -70 2 -129 2 -130 1z"/>
<path d="M1722 4388 c-299 -173 -512 -378 -722 -692 -220 -329 -389 -794 -456
-1255 -4 -25 -8 -54 -10 -64 -2 -10 -6 -48 -10 -85 -3 -36 -7 -74 -9 -83 -9
-47 -19 -286 -18 -464 0 -203 7 -343 28 -535 5 -53 35 -188 70 -315 4 -16 -14
-34 -89 -93 -52 -40 -129 -94 -171 -119 -90 -55 -109 -83 -78 -115 25 -25 78
-30 148 -16 71 14 147 18 167 7 9 -5 20 -18 23 -29 11 -36 40 -43 88 -22 83
38 132 109 90 130 -19 9 -21 9 -73 -2 -27 -5 -46 -1 -82 18 -34 17 -62 23 -97
22 l-50 -1 41 40 c22 22 54 59 71 83 27 38 32 41 47 27 21 -19 44 -19 60 0 29
35 32 399 4 670 -5 48 -5 542 0 600 2 22 6 76 10 120 4 44 9 98 12 120 3 22 7
51 9 65 18 146 41 259 90 445 31 119 78 265 110 340 152 363 312 634 509 865
61 71 313 317 344 335 32 19 47 41 34 48 -4 2 -45 -18 -90 -45z"/>
<path d="M3347 4100 c-14 -11 -54 -75 -88 -143 -60 -118 -111 -205 -153 -258
-12 -14 -33 -41 -48 -60 -45 -58 -66 -81 -150 -166 -92 -93 -87 -106 19 -46
165 92 328 258 429 438 62 111 83 205 53 241 -16 19 -32 18 -62 -6z"/>
<path d="M3661 4066 c-6 -7 -22 -57 -37 -111 -53 -199 -147 -371 -282 -512
-79 -83 -22 -42 75 55 164 162 283 367 306 529 3 18 1 35 -4 39 -20 12 -48 12
-58 0z"/>
<path d="M4005 4028 c-7 -18 -22 -72 -34 -119 -44 -187 -97 -302 -203 -442
-69 -91 -50 -88 35 5 125 138 216 288 257 424 36 120 32 164 -16 164 -19 0
-28 -8 -39 -32z"/>
<path d="M2871 3968 c-31 -30 -95 -114 -189 -245 -23 -33 -50 -69 -60 -79 -9
-11 -48 -55 -87 -99 -86 -99 -324 -335 -325 -323 0 2 -1 64 -1 139 -1 75 -5
143 -10 150 -6 9 -9 -8 -10 -46 0 -33 -2 -69 -4 -80 -2 -11 -6 -49 -9 -85 -7
-81 -14 -110 -34 -133 -12 -14 -14 -22 -5 -35 8 -13 4 -40 -14 -107 -47 -172
-132 -362 -231 -518 l-37 -58 -66 6 c-37 3 -75 7 -85 9 -40 8 -233 19 -314 19
-110 0 -169 -9 -191 -29 -23 -20 -37 -62 -32 -93 2 -13 -5 -36 -14 -50 -119
-176 -101 -441 40 -583 102 -103 264 -126 348 -50 53 48 56 125 6 137 -13 4
-46 -3 -78 -15 -65 -26 -107 -22 -155 15 -159 121 -139 412 37 541 58 42 124
65 177 60 42 -4 205 -18 239 -21 13 -1 25 -4 28 -7 3 -3 -21 -37 -54 -77 -32
-40 -67 -90 -77 -112 -13 -27 -24 -37 -34 -33 -8 3 -50 17 -93 31 -71 24 -81
25 -133 14 -65 -15 -110 -51 -123 -98 -11 -36 2 -45 19 -14 19 37 86 44 152
15 l37 -17 -20 -28 c-26 -37 -32 -85 -13 -104 9 -8 19 -15 23 -15 9 0 41 33
41 43 0 3 4 17 10 32 l10 25 41 -27 c51 -34 111 -36 141 -5 24 24 19 63 -12
90 -25 21 -25 29 -1 37 28 9 126 109 171 174 l39 58 58 -8 c32 -4 85 -10 118
-13 103 -11 133 -17 172 -37 21 -11 58 -19 86 -19 l48 0 -6 -32 c-30 -158 12
-295 118 -391 50 -45 160 -100 237 -117 49 -12 172 -16 210 -7 8 2 31 7 50 11
113 26 266 143 322 246 56 102 79 240 58 335 -10 46 -8 48 69 71 51 15 187 21
236 10 11 -2 31 -5 43 -5 22 -1 23 -4 17 -43 -37 -230 22 -391 176 -481 94
-54 245 -75 348 -47 24 6 46 9 49 5 13 -12 -76 -319 -135 -465 -47 -115 -114
-248 -170 -332 -41 -63 -165 -197 -218 -238 -79 -61 -231 -122 -340 -137 -76
-10 -280 -10 -365 0 -36 4 -100 17 -144 28 -177 45 -296 106 -408 209 -38 34
-68 56 -68 48 0 -30 68 -128 134 -193 173 -171 488 -260 816 -231 105 9 237
44 312 82 l47 24 77 -50 c136 -89 302 -125 429 -93 119 31 113 87 -9 89 -185
3 -282 20 -378 65 l-46 22 103 101 c102 100 192 223 255 346 71 139 168 395
201 528 13 53 28 69 30 32 1 -11 2 -23 3 -27 1 -5 6 -26 11 -48 73 -338 202
-622 348 -766 29 -28 48 -50 42 -49 -21 5 -35 -1 -35 -13 0 -12 31 -14 117 -8
23 1 41 39 34 71 -3 17 -59 96 -98 141 -142 159 -233 354 -369 794 -36 119
-35 146 9 185 113 99 161 270 133 469 -7 44 -6 52 5 45 19 -12 59 -16 86 -9
28 7 32 50 6 63 -20 10 -67 6 -94 -9 -16 -8 -23 0 -50 57 -18 36 -56 92 -86
124 -51 56 -54 61 -68 146 -32 186 -111 420 -139 411 -20 -7 -13 -71 24 -222
25 -103 28 -117 36 -165 3 -19 8 -43 10 -52 4 -15 1 -15 -32 -6 -20 5 -59 8
-85 6 -27 -1 -49 0 -49 3 0 15 -86 40 -135 40 -91 2 -169 -34 -243 -111 -87
-91 -116 -216 -53 -233 16 -4 21 1 26 24 4 17 30 50 66 83 77 72 120 94 54 29
-28 -27 -70 -81 -95 -119 -24 -38 -45 -70 -46 -72 -1 -2 -15 3 -31 11 -78 41
-214 29 -319 -28 l-60 -33 -23 52 c-13 28 -36 68 -52 88 -16 20 -29 47 -29 61
0 44 -23 61 -91 68 -35 3 -92 14 -127 23 -93 26 -223 24 -294 -3 -111 -43
-247 -166 -304 -276 -27 -51 -28 -52 -64 -45 -42 8 -108 4 -141 -8 -14 -6 -39
-4 -63 3 -23 7 -84 20 -137 30 l-97 17 35 61 c89 158 175 401 198 562 13 87
14 89 68 118 144 76 342 242 502 422 107 120 215 298 215 355 0 57 -50 66 -99
18z m1485 -1223 c28 -12 32 -18 36 -62 8 -84 0 -425 -12 -518 -6 -49 -13 -103
-15 -120 -7 -63 -17 -100 -28 -107 -24 -15 -119 -29 -179 -27 -213 8 -361 159
-351 359 7 151 107 325 237 415 51 35 52 35 110 24 67 -12 106 -2 106 29 0 36
22 38 96 7z m-1441 -85 c-3 -4 -26 -13 -52 -19 -59 -14 -148 -49 -188 -73 -84
-50 -90 -50 -38 0 54 50 108 73 213 91 57 9 70 9 65 1z m1634 -130 c24 -69 37
-174 29 -246 -7 -67 -50 -198 -68 -209 -5 -3 -8 66 -7 152 1 147 -6 291 -19
388 l-6 40 30 -45 c16 -25 34 -61 41 -80z m-1292 -32 c45 -74 63 -132 67 -208
8 -178 -92 -348 -247 -421 -82 -38 -95 -41 -192 -45 -96 -3 -148 7 -232 47
-199 95 -256 306 -142 530 32 64 37 69 77 74 15 2 72 11 127 20 55 9 114 19
130 21 17 3 37 7 45 10 8 3 55 8 105 11 49 3 91 6 92 7 1 1 32 3 70 4 l68 3
32 -53z"/>
<path d="M3973 2488 c-43 -47 -63 -185 -40 -274 26 -102 120 -106 167 -8 34
68 37 136 10 206 -33 89 -94 122 -137 76z"/>
<path d="M3013 2352 c-29 -22 -63 -100 -67 -155 -5 -54 23 -141 55 -173 45
-44 96 -37 125 17 20 39 24 61 25 129 2 147 -67 238 -138 182z"/>
<path d="M3641 2026 c-12 -14 -6 -23 44 -68 81 -75 100 -128 69 -193 -37 -80
-142 -73 -255 16 -42 33 -79 37 -101 12 -45 -53 -20 -91 99 -150 91 -45 181
-51 250 -15 123 64 155 243 61 344 -50 52 -143 83 -167 54z"/>
<path d="M1617 1754 c-3 -3 30 -59 73 -125 124 -189 207 -374 244 -545 23
-104 23 -100 61 -439 3 -27 7 -59 10 -70 2 -11 4 -24 4 -28 1 -5 16 -7 33 -5
39 4 51 24 72 124 14 65 16 246 3 299 -3 11 -10 40 -16 65 -61 266 -223 535
-411 682 -55 43 -66 49 -73 42z"/>
<path d="M3333 1262 c-24 -15 -25 -56 -1 -92 64 -95 229 -116 354 -44 71 40
87 78 49 114 -40 38 -101 38 -174 0 -72 -38 -110 -37 -164 4 -36 28 -45 30
-64 18z"/>
<path d="M1120 1208 c-7 -29 -14 -62 -16 -73 -16 -88 -87 -311 -119 -375 -31
-64 -38 -106 -19 -125 25 -24 52 -18 70 16 16 32 76 310 88 409 11 86 18 200
12 200 -2 0 -10 -24 -16 -52z"/>
<path d="M1465 1048 c-27 -82 -112 -299 -126 -323 -21 -34 -25 -85 -7 -103 18
-18 63 -14 82 7 9 10 19 36 21 57 3 21 10 63 15 92 5 30 12 93 16 140 3 48 7
99 9 115 2 28 -3 36 -10 15z"/>
<path d="M1740 958 c-19 -11 -27 -17 -17 -14 9 3 17 4 17 2 0 -1 -13 -45 -30
-96 -32 -101 -32 -135 1 -163 19 -15 25 -16 43 -4 11 8 26 32 32 53 13 48 13
220 -1 232 -6 5 -24 1 -45 -10z"/>
<path d="M4270 838 c0 -11 48 -55 85 -79 42 -27 114 -54 176 -64 25 -5 39 -2
48 9 21 25 -2 53 -52 60 -91 14 -118 22 -239 71 -10 4 -18 5 -18 3z"/>
</g>
</svg>
