<svg width="1000" height="1000" viewBox="0 0 1000 1000" fill="none" xmlns="http://www.w3.org/2000/svg">
<path fill-rule="evenodd" clip-rule="evenodd" d="M91.0509 567.893C102.834 569.05 114.617 570.205 126.4 571.363C182.833 575.675 239.243 584.682 295.244 590.087C296.638 587.817 299.367 588.191 301.024 589.769C306.612 589.279 312.875 585.007 317.937 589.451C318.102 589.428 318.266 589.4 318.432 589.385C327.445 572.082 333.674 553.628 339.721 535.149C343.58 523.787 348.772 512.789 358.367 505.161C374.742 493.791 412.262 470.736 431.49 471.705C431.809 468.262 433.413 464.713 436.048 462.42C430.241 452.516 453.463 446.054 455.101 447.202C454.051 414.115 469.611 385.38 503.922 378.791C534.661 372.385 578.381 371.308 594.913 403.439C596.73 403.235 615.306 403.138 617.103 403.339C619.898 399.799 650.586 433.344 638.008 445.022C750.458 494.778 814.397 488.841 845.522 628.716C849.729 641.856 850.036 656.235 854.479 669.082C870.286 706.002 883.108 745.315 886.299 785.488C894.005 787.463 894.892 801.055 885.965 803.021C882.555 803.773 879.704 804.799 877.217 806.746C879.161 839.667 871.201 914.871 866.185 914.639C855.958 947.194 810.341 956.382 778.045 944.941C783.613 955.418 778.045 962.005 778.045 967.603C661.837 972 534.776 969.468 418.6 975.499C403.739 975.287 388.108 979.149 373.45 976.926C364.511 974.783 364.496 960.724 373.564 958.986L333.944 950.379C334.83 950.045 317.613 938.59 304.601 917.186C292.489 893.242 300.732 864.339 295.244 838.293C252.38 834.787 208.808 833.288 166.413 826.027C160.633 843.326 135.61 822.637 127.657 814.315C127.667 814.302 127.677 814.29 127.686 814.276C123.837 813.223 120.75 809.615 120.647 805.342C117.948 801.485 117.381 796.047 119.97 792.319C108.105 723.839 90.0168 653.92 83.4788 584.796C81.1676 584.285 78.9911 583.271 77.1458 581.71L77.2953 581.56C74.1688 578.074 73.5608 572.056 78.773 569.094C82.9774 566.702 86.488 567.444 91.0509 567.893Z" fill="white"/>
<path fill-rule="evenodd" clip-rule="evenodd" d="M592.77 395.977C589.269 387.176 577.434 390.597 578.753 399.843C579.543 405.381 582.575 411.23 585.299 416.084C587.517 420.036 590.047 423.892 593.478 426.853C587.371 432.552 581.033 438.042 574.534 443.255C567.442 448.943 559.985 454.185 552.277 459.004C545.518 463.23 538.454 466.974 532.082 471.796C526.158 476.278 520.762 481.67 518.015 488.708C515.09 496.202 516.361 503.942 518.516 511.432L518.763 512.279C520.964 519.699 524.774 528.643 519.491 535.634C516.802 539.193 512.892 541.714 509.516 544.559C506.516 547.088 503.699 549.838 501.116 552.792C495.485 559.232 490.904 566.478 488.013 574.552L487.755 575.285C485.277 582.432 483.467 591.188 486.814 598.205C487.775 600.217 490.873 599.563 491.411 597.604C492.627 593.167 492.563 588.52 493.583 584.02C494.645 579.34 496.41 574.898 498.717 570.695C503.179 562.565 509.223 555.62 516.363 549.748L518.5 548.01C524.07 543.437 529.188 538.587 530.319 531.02C531.529 522.924 528.286 515.211 526.2 507.548C524.747 502.208 524.273 497.089 525.843 492.263C527.762 495.396 530.379 498.369 532.449 501.021C536.573 506.304 540.735 511.555 544.887 516.816C549.143 522.21 553.294 527.69 557.248 533.312C559.016 535.827 560.766 538.356 562.509 540.889C563.82 542.792 565.649 544.694 567.078 546.635C566.731 547.673 566.757 548.87 567.387 549.72C574.966 559.963 585.749 538.591 588.561 533.191C594.288 522.195 598.55 510.512 604.296 499.518C610.249 488.122 617.029 477.029 624.585 466.624C629.156 460.33 634.279 454.419 638.46 447.926C648.31 456.86 661.272 462.849 673.178 468.28C686.259 474.246 699.849 479.12 713.261 484.296L717.223 485.835C740.332 494.855 764.006 504.766 783.214 520.789C805.785 539.618 819.138 565.862 829.079 593.038C840.523 624.324 849.99 656.454 858.815 688.564C863.331 704.993 867.617 721.496 871.645 738.053C875.195 752.639 878.138 767.37 882.247 781.806C873.913 781.511 864.408 784.738 857.292 785.67C824.863 789.916 792.871 796.684 762.254 808.402C758.472 809.85 757.378 813.627 758.201 816.689C756.021 816.074 753.841 815.45 751.66 814.837C754.05 811.175 752.909 804.628 752.721 800.569L752.71 800.29C752.517 794.881 751.93 789.467 751.55 784.068C750.825 773.777 749.882 763.56 748.628 753.328L748.308 750.769C746.887 739.637 745.837 728.439 744.286 717.325L744.103 716.053C744.847 713.21 745.712 710.401 746.621 707.605C749.042 700.156 752.459 693.144 755.454 685.929C755.807 685.08 754.597 684.592 754.032 685.102C748.96 689.665 744.932 695.454 741.695 701.509C741.639 701.224 741.59 700.937 741.531 700.652L741.162 698.833C740.251 694.399 739.143 689.734 736.424 686.138C736.134 685.756 735.562 685.676 735.288 686.138C732.685 690.543 732.394 696.122 731.994 701.134C731.541 706.805 731.484 712.547 731.564 718.233C731.72 729.345 732.503 740.488 733.127 751.582C733.739 762.484 734.94 773.247 736.489 784.042L736.784 786.066C737.541 791.204 738.161 796.406 739.16 801.509L739.442 802.898C739.976 805.429 740.304 808.997 741.367 811.961C714.022 804.332 686.635 796.877 659.196 789.554C639.364 784.26 619.512 779.045 599.668 773.797C598.621 771.909 597.317 770.146 595.69 768.571C590.329 763.378 583.224 761.061 576.707 765.058C576.178 765.384 576.133 766.214 576.707 766.529C577.956 767.211 579.207 767.911 580.436 768.641L568.52 765.413C559.614 762.999 550.601 759.982 541.485 758.299C524.695 750.011 506.637 744.013 488.95 738.084L486.866 737.379C477.81 734.291 468.442 730.833 459.086 729.121C452.236 727.868 444.195 729.38 441.441 736.399C437.954 738.698 434.673 741.4 431.506 744.056C429.217 745.976 427.023 748.017 424.792 750.005L424.381 750.366C422.556 751.949 421.111 753.009 420.664 755.529C420.432 756.831 421.259 758.59 422.864 758.418C427.775 757.892 431.768 752.199 435.098 748.799C437.671 746.171 440.265 743.454 442.613 740.566C443.982 741.311 445.859 741.177 446.73 739.527C451.249 730.968 463.628 736.899 470.477 738.928L480.288 741.833C485.193 743.287 490.097 744.749 494.992 746.236C508.446 750.323 521.833 754.896 535.409 758.649C534.195 759.984 534.362 762.36 536.669 763.264C547.296 767.434 558.954 769.591 569.994 772.453C576.965 774.261 583.931 776.08 590.895 777.91C592.089 779.845 592.948 782.034 593.309 784.581C594.638 793.95 592.075 804.759 589.579 813.82L589.202 815.172C587.15 822.457 584.131 831.387 577.847 835.987C576.313 837.109 574.36 837.89 572.391 838.067C560.09 831.733 547.79 825.401 535.482 819.081C533.202 817.909 531.095 819.495 530.584 821.38C526.244 820.668 521.914 819.545 517.971 818.206C511.345 815.956 506.171 811.663 499.959 808.694C487.939 802.951 475.665 810.005 464.903 815.369L462.423 816.588C457.597 818.93 447.557 823.429 445.241 817.024C443.001 810.827 450.082 804.204 454.655 801.415C460.106 798.09 466.454 796.31 472.615 794.828C476.132 793.981 479.693 793.29 483.275 792.786C487.338 792.214 491.535 792.3 495.447 790.981C497.392 790.328 497.69 787.239 495.447 786.729C489.425 785.358 482.237 786.854 475.953 788.382L472.668 789.191C466.337 790.745 459.944 792.696 454.177 795.796C449.983 798.051 445.557 801.476 442.665 805.669C440.154 803.336 437.029 803.415 433.774 804.28L432.007 804.771C429.089 805.58 426.724 806.137 423.885 805.577C423.505 803.511 423.121 801.444 422.709 799.377C418.663 779.061 414.226 758.823 409.33 738.693C400.886 703.971 391.114 669.631 380.098 635.642L378.992 632.244C376.451 624.47 374.406 616 370.31 608.858C366.436 602.105 360.229 598.215 352.854 596.155C344.485 593.817 335.691 592.594 327.154 591.015C325.249 590.664 323.34 590.329 321.434 589.984C323.044 587.074 324.247 583.772 325.33 581.238L325.52 580.799C327.847 575.493 329.937 570.091 331.955 564.661L333.465 560.578C337.109 550.747 340.871 541.078 345.995 531.883C351.389 522.206 358.544 514.295 367.463 507.747C385.649 494.396 407.568 487.586 425.206 473.318C425.929 472.733 425.002 471.734 424.269 472.104C412.359 478.089 399.502 482.159 387.114 487.032L384.67 487.996C374.879 491.879 364.936 496.105 356.461 502.391C347.013 509.4 339.571 518.104 333.978 528.455C328.466 538.658 324.94 550.079 321.051 560.977L320.011 563.881C318.442 568.236 316.822 572.577 314.965 576.815C313.491 580.179 310.741 584.019 309.491 587.862C306.07 587.269 302.651 586.674 299.227 586.102C225.07 573.718 150.085 566.441 74.9332 564.313C71.993 564.229 70.4722 567.036 70.9055 569.601C78.1176 612.257 84.5267 655.059 91.559 697.748C94.6286 716.379 97.7594 734.996 100.964 753.604C102.587 763.032 104.463 772.423 106 781.864C107.242 789.489 108.143 797.173 110.273 804.622C112.184 811.3 115.117 817.739 119.934 822.834C125.126 828.326 132.372 830.985 139.667 832.241C158.185 835.429 177.179 836.73 195.847 838.854L295.238 850.164C293.786 863.369 293.677 876.368 294.344 889.727L294.723 897.02C295.034 902.885 295.405 908.76 296.247 914.565C297.304 921.847 300.634 928.013 305.54 933.453C310.044 938.448 315.517 942.71 320.84 946.794C326.366 951.035 332.075 955.128 338.572 957.75L339.415 958.085C345.114 960.311 355.806 963.757 363.596 962.498C362.578 967.601 360.607 973.088 362.354 978.138C363.165 980.483 366.23 981.652 368.108 979.657C371.829 975.703 372.12 970.48 373.001 965.321C373.918 959.953 374.708 954.566 375.41 949.165C376.769 938.724 377.826 928.186 378.148 917.656C378.48 906.842 378.352 896.013 377.77 885.21C377.47 879.663 377.099 874.119 376.395 868.607C376.095 866.256 375.788 863.904 375.437 861.559C375.309 860.704 375.167 859.853 375.014 859.004L383.935 860.011C397.614 861.538 411.299 862.917 425.075 863.132C426.706 863.156 427.961 862.414 428.782 861.331C429.656 862.755 431.177 863.774 433.356 863.766C452.594 863.694 470.509 857.402 488.006 849.987C496.825 846.248 505.508 842.2 514.341 838.493C522.585 835.033 531.399 832.565 539.445 828.667L560.586 839.759C560.741 840.304 560.94 840.82 561.151 841.252C562.527 844.062 565.241 845.587 568.013 846.735C570.674 847.839 573.429 848.182 576.113 847.903C592.147 856.307 608.184 864.703 624.232 873.08L640.284 881.449C672.264 898.104 704.119 915.033 736.301 931.297L738.67 932.49C749.786 938.065 761.722 943.716 774.058 947.933C774.278 951.056 774.139 954.094 773.877 957.399L773.815 958.119C773.447 962.026 772.658 966.921 775.791 969.702C777.421 971.148 780.332 971.153 781.44 968.973C783.451 965.018 781.646 958.784 781.009 954.488C780.783 952.961 780.507 951.39 780.099 949.866C794.241 954.077 808.812 956.119 823.203 953.754C837.214 951.454 848.066 942.625 856.815 931.826C866.048 920.43 872.609 907.149 876.129 892.912C880.136 876.712 880.397 859.981 880.303 843.387C880.203 825.717 879.55 807.959 877.401 790.407C879.755 789.853 882.366 789.374 884.745 789.54C885.923 791.425 888.209 792.22 890.275 791.974C894.766 796.929 883.374 801.993 879.733 803.261C878.469 803.701 878.604 805.755 880.062 805.693L880.981 805.649C886.606 805.35 892.418 804.389 895.726 799.16C898.376 794.969 897.58 790.003 894.42 786.585C892.333 766.849 887.344 747.63 882.701 728.378C878.144 709.481 873.077 690.705 867.706 672.024L865.298 663.663C856.841 634.372 848.002 604.844 836.336 576.717C830.511 562.672 823.801 548.886 814.705 536.64C806.226 525.224 796.216 515.456 784.71 507.113C763.259 491.558 738.089 482.159 713.358 473.205L712.251 472.804C699.435 468.167 686.651 463.475 673.981 458.451C662.776 454.008 652.041 448.375 640.888 443.865C641.251 443.207 641.601 442.542 641.937 441.869L642.143 442.043C642.179 442.071 642.215 442.098 642.252 442.123C643.374 442.901 645.025 442.519 645.949 441.646C648.559 439.183 647.675 436.449 645.934 433.895L645.707 433.57C643.576 430.585 641.676 427.428 639.709 424.335L638.478 422.4C635.177 417.232 631.709 412.03 627.308 407.758C625.269 405.779 623.038 404.298 620.674 403.195C620.876 402.767 619.104 401.893 618.601 402.333C611.111 399.591 602.493 400.165 594.327 400.922M300.047 850.711L310.461 851.895C321.918 853.199 333.379 854.46 344.842 855.708L369.74 858.415C369.803 859.834 369.976 861.223 370.007 862.295C370.17 867.822 370.291 873.352 370.406 878.881C370.636 889.965 370.383 901.058 369.654 912.12C368.947 922.839 368.016 933.559 366.569 944.205L366.272 946.333L366.101 947.452C364.92 947.566 363.76 948.127 362.795 949.28C360.689 951.795 353.064 949.35 350.086 948.291C345.188 946.547 340.576 943.602 336.321 940.649C332.165 937.766 328.423 934.403 324.827 930.861L321.885 927.951C318.958 925.042 316.028 921.942 314.235 918.283C311.803 913.321 311.488 907.23 310.776 901.825C309.898 895.178 308.852 888.531 307.747 881.916M602.357 780.932L603.438 781.216C642.676 791.644 681.856 802.381 721.214 812.349C740.692 817.283 760.262 821.858 779.764 826.697L782.921 827.487C798.306 831.376 813.875 836.057 825.656 847.218C826.091 847.629 826.722 846.998 826.313 846.561C813.616 833.042 795.558 827.319 778.219 822.357C775.014 821.44 771.805 820.545 768.599 819.633C792.179 811.225 816.132 803.909 840.637 798.692C846.947 797.348 853.331 796.362 859.636 795.013C864.034 794.072 868.328 792.712 872.679 791.583L876.101 790.722L876.147 801.541C876.204 816.864 876.176 832.175 875.395 847.496L875.247 850.334C874.335 867.384 872.912 884.788 866.862 900.864C861.947 913.929 854.112 926.236 843.865 935.751C838.681 940.566 833.107 944.314 826.216 946.164C819.819 947.882 813.116 948.083 806.539 947.625C774.993 945.424 746.912 928.283 719.509 914.092C674.688 890.88 629.862 867.679 584.995 844.557C586.208 843.727 587.35 842.771 588.389 841.697C594.405 835.482 597.579 826.974 599.663 818.735C601.882 809.964 603.209 800.564 603.363 791.51M545.269 853.517C544.872 853.304 544.414 853.571 544.396 854.018C544.257 857.445 546.151 860.826 547.566 863.914L547.715 864.244C549.434 868.068 551.316 871.842 553.263 875.556C557.154 882.977 561.197 890.319 565.417 897.557C573.903 912.117 583.333 926.064 594.48 938.742C596.998 941.606 601.138 937.934 599.523 934.85C591.733 919.985 582.652 905.95 573.304 892.036C568.625 885.07 563.948 878.097 559.222 871.163C557.251 868.269 555.254 865.386 553.204 862.546L551.967 860.848M79.9023 572.827C119.278 574.016 158.607 576.584 197.795 580.61C234.24 584.353 270.551 589.336 306.658 595.547C314.199 596.845 321.732 598.195 329.254 599.599L333.767 600.448C341.291 601.874 350.482 602.462 357.181 606.483C364.244 610.721 366.153 619.579 368.503 626.884C371.266 635.474 373.958 644.089 376.578 652.725C386.982 687.014 396.486 721.6 404.964 756.414C409.172 773.695 412.906 791.072 416.84 808.416C420.336 823.826 424.193 839.061 428.222 854.317C427.725 853.93 427.116 853.637 426.381 853.48C406.372 849.222 385.948 847.371 365.64 845.019L363.675 844.789C342.666 842.318 321.658 839.865 300.637 837.501L161.463 821.846C153.255 820.924 144.461 820.798 136.474 818.595C122.893 814.848 119.71 799.661 117.431 787.567L117.362 787.201C110.493 750.659 105.024 713.8 98.6176 677.165M424.983 811.838C430.387 811.481 437.782 806.532 441.881 806.886C439.729 810.498 438.758 814.618 439.998 819.017C443.45 831.259 459.06 824.925 466.579 821.185C472.744 818.117 478.697 814.363 485.522 812.927C493.254 811.301 498.492 814.376 505.024 817.921C510.39 820.832 516.233 822.923 522.242 824.005C525.437 824.581 528.472 824.642 531.501 824.417C531.684 824.566 531.889 824.704 532.124 824.827L533.726 825.668C526.48 826 519.1 828.236 512.356 830.284C505.369 832.405 498.509 834.962 491.685 837.577L484.973 840.158C468.415 846.5 451.276 852.522 433.357 852.469C432.068 852.466 431.013 852.823 430.182 853.405M455.215 773.479C449.876 772.826 444.949 773.526 440.684 777.002C435.54 781.193 432.084 788.145 424.689 788.601C422.532 788.734 422.031 791.766 424.174 792.4C429.679 794.03 434.136 791.052 437.887 787.184L440.408 784.549C444.114 780.71 447.533 777.743 453.822 777.972C460.557 778.218 467.303 779.775 473.995 780.566C481.575 781.462 489.154 782.227 496.758 782.886C497.111 782.917 497.171 782.36 496.84 782.279L488.323 780.159M460.367 751.651L459.487 751.563C451.735 750.81 444.646 750.781 437.723 754.952L436.396 755.755C430.154 759.55 423.36 764.02 419.457 770.164C418.818 771.17 419.874 772.353 420.942 772.097C428.444 770.296 433.928 764.79 440.237 760.67C447.317 756.046 454.631 756.809 462.703 757.527C470.519 758.223 478.331 759.179 486.071 760.482C493.343 761.705 500.639 763.637 507.984 764.252L507.983 764.237C508.822 764.236 509.301 762.975 508.445 762.548C500.99 758.825 492.356 757.062 484.247 755.361M725.798 540.823C725.808 540.21 724.945 539.98 724.644 540.511C719.6 549.386 716.964 560.266 714.277 570.044C711.463 580.287 709.192 590.634 707.151 601.057C703.018 622.162 700.815 643.147 700.666 664.657C700.645 667.729 705.647 668.546 706.137 665.399C709.386 644.475 712.498 623.529 715.772 602.611C717.419 592.09 719.336 581.609 721.17 571.119M675.867 556.282C676.239 555.058 674.458 554.649 674.002 555.768C663.881 580.619 660.453 608.782 666.951 635C667.946 639.011 673.818 637.274 673.068 633.313M545.309 534.2C545.36 533.284 544.171 533.139 543.723 533.77C538.927 540.529 536.938 549.581 528.523 553.074C524.322 554.818 519.595 554.514 515.883 557.46C513.402 559.43 511.499 562.54 513.361 565.524C513.962 566.488 515.644 566.971 516.459 565.923C517.649 564.397 518.278 562.57 519.895 561.426C522.175 559.812 525.25 559.712 527.864 558.954C531.245 557.973 534.226 556.257 536.667 553.708M465.185 421.467C464.691 421.215 464.216 421.376 463.9 421.804C463.449 422.413 463.504 423.006 464.057 423.423C463.319 424.933 462.446 428.715 462.322 429.265C461.817 431.497 461.28 433.716 460.718 435.933C459.584 440.404 458.59 444.909 457.456 449.382C456.253 454.123 454.819 458.814 453.224 463.437C453.121 463.736 453.008 464.042 452.889 464.352L452.708 464.82L452.663 464.749C452.339 464.236 451.664 464.595 451.744 465.136C451.818 465.63 451.918 466.121 452.002 466.614L451.835 467.056C450.792 469.865 450.077 472.824 451.991 475.302C452.708 476.229 453.496 476.778 454.478 476.941C456.052 482.133 458.028 487.228 460.143 492.121L460.762 493.55C463.873 500.689 467.191 507.735 472.145 513.813C477.553 520.449 484.992 524.981 489.703 532.252C491.895 535.635 493.42 539.191 494.657 543.011L495.123 544.461C496.002 547.163 497.015 549.781 499.549 551.366C500.358 551.871 501.569 551.71 502.221 551.021C507.417 545.523 501.978 535.257 498.844 529.935C494.489 522.533 488.186 517.797 481.874 512.213C475.07 506.194 470.73 498.141 466.533 490.208C463.961 485.349 461.479 480.384 458.866 475.503C461.596 473.089 462.47 468.295 463.395 464.962L463.48 464.663C465.009 459.326 466.223 453.851 466.991 448.351C467.729 443.063 468.037 437.852 467.842 432.534L467.786 431.18M455.034 446.634C455.637 445.807 454.638 444.87 453.811 445.043C448.778 446.084 443.859 449.13 439.342 451.594L438.86 451.856C435.255 453.8 431.627 456.182 429.734 459.96C427.675 464.066 427.845 468.795 428.126 473.257L428.152 473.674C428.496 479.025 428.552 484.585 429.684 489.839C430.263 492.528 432.698 493.286 434.78 492.651C437.257 500.474 444.216 506.239 449.299 512.413C455.78 520.283 454.561 530.91 453.883 540.389C453.609 544.227 458.382 545.319 460.84 543.271L466.505 538.564C467.449 537.779 468.391 536.992 469.331 536.202C470.135 535.524 470.933 534.842 471.724 534.151L472.905 533.107C473.429 532.638 475.741 530.056 476.417 529.948C478.053 529.688 481.942 534.003 483.273 535.357L483.442 535.526C485.947 537.983 488.211 540.626 490.319 543.43C490.707 543.945 491.465 543.518 491.188 542.923C489.299 538.875 487.102 535.005 484.494 531.383L483.967 530.662C482.232 528.322 479.902 524.192 476.839 523.501C473.099 522.659 469.364 526.41 466.643 528.492L466.471 528.623C465.176 529.594 463.896 530.583 462.619 531.579C462.752 524.521 461.861 517.39 458.218 511.307C455.649 507.018 451.8 503.841 448.507 500.155C444.841 496.05 442.926 491.006 439.608 486.731C439.18 486.181 438.591 485.885 437.953 485.791C437.826 482.354 437.32 478.884 436.928 475.484L436.815 474.467C436.42 470.773 435.486 466.262 437.294 462.803C439.002 459.535 442.92 457.229 445.822 455.012L448.191 453.174M618.349 407.579C619.864 408.456 621.28 409.546 622.565 410.909C626.609 415.2 629.501 420.54 632.315 425.677C633.83 428.444 635.29 431.241 636.818 434.001C637.482 435.202 638.165 436.39 638.856 437.576C639.175 438.122 640.124 439.208 640.595 439.878C640.072 440.61 639.532 441.331 638.98 442.045C638.77 442.317 624.263 458.124 619.206 464.31C611.462 473.786 604.541 483.796 598.623 494.509C592.829 505 588.417 516.108 583.05 526.803C580.363 532.157 577.362 537.473 573.538 542.107C573.39 542.288 573.234 542.458 573.083 542.637C571.623 538.692 567.883 534.469 566.046 532.044L565.874 531.815C561.708 526.198 557.308 520.749 552.812 515.394C548.706 510.503 544.496 505.718 540.183 501.012L538.562 499.251C535.557 496.005 531.741 491.147 527.342 488.828C527.814 487.988 528.359 487.157 528.986 486.336C533.107 480.95 538.932 477.041 544.68 473.514L548.408 471.246C562.459 462.681 576.291 453.72 588.49 442.591C594.944 436.703 601.308 430.535 606.733 423.667L608.652 421.239M594.904 403.339C601.484 403.891 608.59 403.76 614.671 405.904C609.265 411.016 604.126 416.535 598.848 421.733C598.378 418.217 597.418 414.745 596.604 411.317" fill="black"/>
<path fill-rule="evenodd" clip-rule="evenodd" d="M357.12 364.665C360.389 359.826 368.259 324.714 373.286 319.314C372.907 298.571 367.179 226.756 383.54 194.473C380.098 190.989 370.953 160.982 373.286 149.638C365.578 125.882 415.093 88.15 433.938 77.954C521.52 30.9405 648.432 82.8354 688.262 169.927C712.198 222.377 712.639 281.101 715.345 337.538C715.665 349.618 716.774 361.792 716.761 373.858C715.031 384.46 706.633 395.257 712.999 404.074C720.032 408.943 734.245 420.805 727.916 427.532C724.208 430.623 718.283 428.829 714.259 431.801C712.21 432.949 710.932 435.464 708.536 435.847C686.648 435.014 671.203 434.943 649.247 434.055C639.636 433.74 625 437.81 613.968 429.708C575.431 451.165 591.551 420.035 583.758 397.871C560.028 405.903 512.758 431.516 487.464 432.343C466.91 434.886 447.689 422.903 427.482 425.631C402.378 434.967 372.957 437.043 349.962 421.247C344.223 417.109 337.839 421.902 330.606 417.435C316.549 410.705 350.026 372.131 357.12 364.665Z" fill="white"/>
<path fill-rule="evenodd" clip-rule="evenodd" d="M385.809 191.718C386.121 189.926 383.655 188.59 382.701 190.406C375.771 203.597 372.995 218.873 370.54 233.443C368.061 248.166 366.422 262.951 366.332 277.897C366.262 289.394 367.305 301.024 369.264 312.529L369.025 313.348C368.586 314.852 368.142 316.355 367.693 317.856L367.017 320.108C365.709 324.431 364.471 328.775 363.128 333.087C360.323 342.088 357.371 351.115 353.754 359.825C350.225 368.325 345.934 376.522 340.832 384.183C335.916 391.569 328.113 397.814 324.649 406.017C323.442 408.875 325.227 412.654 328.562 412.197C328.779 412.459 329.109 412.649 329.558 412.688C332.147 412.915 334.573 412.699 337.157 412.457C338.599 412.321 338.596 410.348 337.157 410.212C336.059 410.109 334.991 410.018 333.923 409.956C341.311 405.574 346.581 397.018 350.795 390.012C356.211 381.012 360.301 371.178 363.635 361.234C367.06 351.024 369.485 340.601 371.433 330.018C371.656 328.799 371.869 327.58 372.074 326.359C374.536 336.836 377.706 347.121 381.463 357.006L381.99 358.382C390.652 380.861 402.383 403.555 421.895 418.413C422.781 419.086 423.686 419.726 424.597 420.351L423.487 420.988C422.383 421.62 421.294 422.226 420.23 422.723C416.287 424.564 412.007 425.968 407.773 426.963C399.028 429.019 389.845 428.43 380.923 428.716C377.997 428.81 376.332 433.202 379.324 434.628C389.178 439.326 399.82 438.329 409.992 435.024C415.025 433.387 419.748 431.096 424.117 428.106C425.923 426.87 428.021 425.345 429.792 423.582C449.306 434.512 473.56 435.735 495.28 431.826C506.567 429.794 517.504 426.084 527.127 419.737C536.383 413.634 542.981 405.907 547.691 395.896C548.11 395.008 546.948 393.903 546.235 394.771C531.438 412.76 505.976 420.266 483.575 421.694C471.623 422.457 459.396 421.823 447.904 418.243C437.003 414.846 427.65 408.619 419.84 400.338C404.01 383.552 394.525 360.717 387.712 338.985C380.302 315.343 376.773 290.469 376.044 265.727C375.676 253.191 376.14 240.55 378.107 228.154C380.057 215.859 383.678 203.961 385.809 191.718ZM607.648 85.2167C606.6 84.6835 605.862 86.071 606.751 86.7536C625.202 100.918 641.725 118.879 655.099 137.889C679.763 172.949 695.581 213.521 702.864 255.678C707.165 280.575 708.288 305.849 707.859 331.077C707.688 341.098 707.117 351.089 706.481 361.084L705.763 372.162C705.429 377.324 705.151 382.441 705.366 387.628L705.425 388.826C705.766 394.861 705.173 400.945 706.685 406.833C707.461 409.852 711.715 410.327 713.255 407.692C713.557 407.176 713.839 406.644 714.113 406.106C717.722 412 722.397 417.268 727.585 421.974C725.105 421.446 722.602 421.109 720.032 421.417C715.958 421.906 712.304 423.481 709.718 426.241C707.151 425.083 704.512 424.286 701.477 424.269C699.241 424.258 697.565 426.903 698.841 428.868C701.385 432.79 704.936 434.989 708.97 437.163C711.829 438.703 715.242 437.386 716.297 434.34L716.358 434.155C717.546 430.302 723.865 430.924 726.847 431.52L727.724 431.7C733.274 432.856 738.693 434.335 744.347 432.809C747.994 431.825 748.947 426.329 745.431 424.505C734.325 418.744 725.001 411.005 715.419 403.235C717.535 398.042 718.737 392.24 720.122 386.96C722.072 379.528 722.641 371.532 723.346 363.898C724.684 349.383 725.194 334.711 725.051 320.139C724.565 270.923 716.157 221.553 694.679 176.986C685.269 157.463 672.908 139.397 658.296 123.407C643.772 107.511 626.807 94.958 607.648 85.2167ZM624.844 326.244C625.414 325.453 624.301 324.407 623.521 324.92C606.634 336.024 594.915 352.885 587.354 371.408C579.869 389.746 575.273 412.207 582.655 431.33C583.83 434.376 589.457 435.507 590.033 431.33C592.607 412.68 593.007 394.002 598.665 375.87C604.275 357.895 613.874 341.435 624.844 326.244ZM637.938 386.793C637.845 386.463 637.308 386.52 637.331 386.875C637.754 393.452 638.041 400.109 638.867 406.649C639.268 409.828 639.799 412.986 640.251 416.157C640.715 419.409 640.645 422.692 642.534 425.47C645.037 429.152 651.687 428.116 651.464 423.049C651.31 419.553 649.705 417.31 648.202 414.242C647.238 412.275 646.398 410.241 645.588 408.199L644.384 405.135C641.991 399.06 639.701 393.086 637.938 386.793ZM668.177 369.371C668.075 368.853 667.241 368.978 667.266 369.494C667.717 378.802 668.766 388.006 670.408 397.179C671.157 401.36 672.03 405.517 672.954 409.663L673.353 411.439C674.34 415.806 674.978 420.939 677.191 424.84C679.402 428.738 684.653 425.907 683.972 421.977C683.178 417.39 680.365 412.775 678.73 408.369C677.221 404.301 675.902 400.162 674.669 396.003C672.074 387.248 669.946 378.329 668.177 369.371ZM611.865 395.214L611.668 395.012C610.9 394.176 609.754 394.733 609.387 395.615C607.885 399.231 608.637 403.495 608.744 407.334L608.764 408.171C608.844 412.06 608.788 415.703 610.549 419.293C612.688 423.651 618.324 420.944 618.76 417.066C619.237 412.835 617.237 408.692 615.946 404.728C615.126 402.209 614.528 399.589 613.28 397.303C614.347 397.487 615.413 397.856 616.388 398.123C616.825 398.241 616.99 397.599 616.573 397.45C614.96 396.878 613.139 396.449 611.865 395.214ZM387.051 408.046C387.566 407.469 386.924 406.701 386.255 407.013C378.225 410.767 370.713 413.21 361.852 414.01C358.012 414.356 357.988 420.395 361.852 420.045C371.1 419.211 380.792 415.06 387.051 408.046ZM669.595 281.188C662.525 265.267 640.157 251.144 625.158 265.95C624.877 266.226 625.163 266.83 625.571 266.66C634.901 262.79 646.322 267.713 652.779 274.753C657.902 280.338 660.98 287.509 661.591 295.067C662.202 302.632 660.395 310.528 655.376 316.379C652.744 319.449 649.188 322.354 645.005 322.723C640.781 323.095 637.26 320.117 633.267 319.308C630.256 318.699 627.984 320.59 627.689 323.561C627.038 330.117 633.559 334.517 639.211 335.586C645.291 336.735 651.496 335.479 656.735 332.181C673.656 321.529 677.306 298.554 669.595 281.188ZM510.837 125.137C507.762 122.195 502.532 125.119 503.667 129.316C506.079 138.246 511.207 145.795 516.888 152.959C522.354 159.852 528.21 166.476 534.486 172.641C540.721 178.765 547.495 184.432 554.615 189.495L556.759 191.015C561.805 194.576 567.15 198.177 572.798 200.741C574.162 212.503 576.83 224.108 580.867 235.219C584.755 245.918 589.702 256.258 595.696 265.934L596.557 267.32C602.065 276.157 608.689 286.033 618.036 290.877C618.316 291.023 618.597 291.112 618.874 291.164C616.783 292.56 615.016 294.316 613.966 296.838C612.815 299.6 615.221 302.206 617.527 303.118C622.404 305.047 627.162 301.782 631.546 298.298C631.731 298.716 631.906 299.138 632.056 299.563C633.036 302.344 633.325 305.187 635.853 307.033C637.054 307.91 638.534 307.125 639.29 306.131C641.769 302.871 639.203 298.43 637.024 295.765C636.722 295.397 636.41 295.047 636.09 294.711C637.011 294.034 637.909 293.433 638.78 292.971C643.899 290.257 651.488 289.776 654.436 295.784C654.662 296.246 655.372 296.007 655.372 295.53C655.365 288.15 647.813 284.142 641.259 283.597C636.471 283.199 631.84 284.88 627.531 286.838L626.726 287.208C625.123 287.953 623.47 288.656 621.889 289.443C622.146 288.763 622.142 287.964 621.737 287.172C616.781 277.483 608.27 269.603 602.132 260.63C596.046 251.727 590.82 242.199 586.649 232.251C582.6 222.595 579.428 212.635 577.21 202.477C577.941 202.628 578.765 201.977 578.713 201.214C578.589 199.366 577.686 197.702 576.101 196.993C574.354 187.438 573.463 177.722 573.515 167.927C573.519 167.168 572.42 167.195 572.356 167.927C571.584 176.636 571.521 185.429 572.17 194.172C568.046 190.374 563.696 186.762 559.725 182.863C553.75 176.996 547.969 170.973 542.393 164.725C536.704 158.351 531.326 151.743 526.409 144.751L523.835 141.085C519.879 135.463 515.814 129.901 510.837 125.137ZM518.595 62.3851C484.661 60.2646 448.42 64.4395 417.939 80.3853C401.199 89.142 388.26 102.377 379.014 118.848C373.494 128.683 369.306 139.575 367.72 150.772C366.091 162.277 368.003 172.536 375.342 181.681C378.256 185.313 383.166 181.256 382.447 177.54C378.054 154.806 385.18 132.343 397.817 113.522C416.156 86.2093 448.181 74.0768 479.362 68.6647C494.682 66.0069 510.22 64.8959 525.762 65.4366C537.611 65.8493 549.767 66.9545 561.011 70.9453C561.485 71.1136 561.674 70.3741 561.217 70.1999C547.804 65.0717 532.831 63.2749 518.595 62.3851ZM468.268 113.793C466.521 112.685 464.384 113.822 463.783 115.621C461.666 121.961 466.104 130.338 469.072 135.826C472.431 142.035 476.751 147.841 481.211 153.294C490.135 164.201 501.864 173.302 514.735 179.022C515.523 179.373 516.442 178.42 515.719 177.747C505.76 168.463 496.731 158.511 488.914 147.346C485.074 141.859 481.87 136.071 478.811 130.126C476.074 124.806 473.5 117.113 468.268 113.793ZM411.196 121.263C410.08 117.36 403.721 118.025 403.984 122.24C404.665 133.129 409.796 144.06 415.373 153.289C421.115 162.792 428.386 171.26 436.721 178.574C437.132 178.935 437.694 178.379 437.322 177.972C430.131 170.091 424.322 161.114 420.021 151.345C415.724 141.59 414.102 131.411 411.196 121.263ZM442.8 119.499C441.584 116.106 435.763 116.358 436.12 120.405C437.101 131.53 443.623 143.188 449.663 152.377C456.073 162.125 464.255 170.714 473.399 177.927C473.741 178.197 474.225 177.749 473.891 177.434C465.678 169.688 459.017 160.74 453.745 150.759C451.053 145.666 448.796 140.363 447.013 134.885C445.364 129.817 444.59 124.495 442.8 119.499Z" fill="black"/>
<path fill-rule="evenodd" clip-rule="evenodd" d="M461.952 372.081C461.955 372.031 461.878 372.031 461.876 372.081C461.725 375.635 460.725 378.929 458.877 381.969C458.852 382.013 458.918 382.051 458.944 382.008C460.793 378.966 461.802 375.638 461.952 372.081ZM442.33 298.746C436.111 302.521 426.636 311.325 433.326 320.685C441.2 328.937 452.538 319.475 458.125 315.195C463.306 311.879 469.127 320.409 464.32 324.282C423.948 354.135 407.564 299.733 439.185 294.307C442.666 293.709 443.959 297.578 442.33 298.746ZM410.501 256.495C409.041 256.495 407.644 256.99 406.372 257.906C405.12 258.808 403.987 260.124 403.043 261.765C401.257 264.87 400.14 269.158 400.14 273.9C400.14 278.641 401.257 282.929 403.043 286.035C403.987 287.676 405.12 288.992 406.372 289.893C407.644 290.809 409.041 291.304 410.501 291.304C411.961 291.304 413.358 290.809 414.63 289.893C415.882 288.992 417.015 287.676 417.959 286.035C419.745 282.929 420.862 278.641 420.862 273.9C420.862 269.158 419.745 264.87 417.959 261.765C417.015 260.124 415.882 258.808 414.63 257.906C413.358 256.99 411.961 256.495 410.501 256.495ZM478.127 261.331L477.577 261.227C474.37 260.644 472.749 260.841 469.956 263.024C467.857 264.665 468.458 267.897 469.956 269.622C472.565 272.629 475.114 272.097 478.689 272.212L478.94 272.221C481.918 272.342 484.9 272.426 487.881 272.472C488.696 272.485 489.512 272.481 490.328 272.486C490.241 280.021 494.591 285.759 500.319 290.12C504.022 292.941 508.705 289.687 510.026 286.176C511.119 283.271 511.354 279.699 510.787 276.518C510.577 275.346 510.14 274.073 509.471 272.988L509.283 272.697L509.313 272.281C509.321 272.178 509.313 272.078 509.316 271.976C514.634 271.653 519.922 271.12 525.207 270.451L526.969 270.223C531.48 269.626 538.105 269.435 541.756 266.504C541.871 266.41 541.83 266.206 541.708 266.141C539.701 265.061 537.665 265.122 535.421 265.023L535.099 265.007C532.658 264.881 530.222 264.776 527.783 264.693L525.342 264.616C519.098 264.438 512.848 264.135 506.61 263.804C505.525 263.746 504.44 263.678 503.354 263.611C502.218 263.136 501.011 262.851 499.819 262.799C498.83 262.754 497.88 262.891 496.987 263.175C494.708 262.999 492.431 262.807 490.156 262.601L487.881 262.391C484.671 262.086 481.296 261.952 478.127 261.331Z" fill="black"/>
<path fill-rule="evenodd" clip-rule="evenodd" d="M452.918 365.726C446.244 364.106 439.356 359.78 432.569 361.909C429.396 362.904 427.451 367.303 429.211 370.067C431.9 374.287 435.051 375.289 440.077 376.228C443.845 376.932 447.662 377.38 451.496 377.404L452.472 377.403C459.323 377.362 466.543 376.421 472.247 372.848C473.414 372.117 473.07 370.217 471.725 369.797C465.639 367.903 459.125 367.234 452.918 365.726Z" fill="black"/>
<path fill-rule="evenodd" clip-rule="evenodd" d="M370.274 301.856C380.309 312.22 397.061 315.193 410.412 309.636C444.693 295.32 427.914 250.67 401.476 238.68C398.173 237.857 393.762 235.905 389.739 235.462C389.375 235.284 388.584 235.8 387.624 235.312C358.471 238.565 351.833 283.795 370.274 301.856ZM480.846 304.509C492.101 319.429 513.025 324.032 530.121 317.096C563.895 303.802 551.916 264.209 528.809 248.687C479.996 230.355 459.84 276.999 480.846 304.509ZM554.06 271.45C554.091 271.436 554.123 271.428 554.155 271.413C553.977 271.335 553.798 271.256 553.62 271.176C553.678 271.327 553.741 271.477 553.797 271.628C553.885 271.568 553.962 271.498 554.06 271.45ZM347.039 255.323C349.795 255.329 353.775 255.781 356.056 257.692C361.682 238.731 382.446 221.182 400.504 233.978C414.724 238.549 425.277 248.686 431.274 262.163C442.087 255.734 459.091 258.479 468.468 266.98C474.609 246.699 489.723 239.597 507.712 238.549C527.347 235.335 546.918 254.393 553.024 269.683C558.102 269.105 565.688 267.49 570.465 270.622C601.466 262.496 655.665 258.017 661.968 262.531C666.459 264.254 668.924 274.849 662.65 275.421C657.184 274.645 663.289 267.657 657.778 266.895C628.417 265.076 599.914 270.985 570.864 273.465C568.271 276.952 559.89 278.119 555.42 276.718C562.461 302.653 547.261 320.299 524.486 325.584C489.22 333.68 458.539 302.15 467.76 269.355C457.077 264.043 444.789 264.271 433.152 267.069C452.598 338.6 337.333 335.39 355.336 260.143C343.355 266.099 340.753 256.525 347.039 255.323Z" fill="black"/>
<path fill-rule="evenodd" clip-rule="evenodd" d="M405.657 213.78C399.455 213.832 391.743 216.942 389.962 223.715C389.169 226.732 391.168 229.595 394.36 229.23C402.074 228.346 408.649 225.469 416.206 229.469C419.458 231.191 422.389 233.834 424.928 236.533L425.89 237.561L426.686 238.408C428.414 240.269 430.099 242.322 430.309 244.877C430.371 245.633 431.231 246.218 431.933 246.072C436.304 245.162 435.846 239.421 434.707 236.116C432.592 229.981 428.639 224.545 423.727 220.452C418.568 216.153 412.291 213.725 405.657 213.78Z" fill="black"/>
</svg>
